<svg width="35" height="34" viewBox="0 0 35 34" fill="none" xmlns="http://www.w3.org/2000/svg">
<g clip-path="url(#clip0_596_23248)">
<path d="M34.095 17.3191C34.095 15.9261 33.982 14.9096 33.7373 13.8555H17.8311V20.1426H27.1677C26.9795 21.7051 25.963 24.0581 23.7041 25.6392L23.6724 25.8497L28.7017 29.7458L29.0501 29.7806C32.2502 26.8252 34.095 22.4768 34.095 17.3191Z" fill="#4285F4"/>
<path d="M17.8308 33.8839C22.405 33.8839 26.2451 32.3779 29.0499 29.7803L23.7039 25.6389C22.2733 26.6366 20.3532 27.333 17.8308 27.333C13.3507 27.333 9.54833 24.3778 8.19287 20.293L7.99419 20.3098L2.76468 24.357L2.69629 24.5471C5.48221 30.0813 11.2047 33.8839 17.8308 33.8839Z" fill="#34A853"/>
<path d="M8.1928 20.292C7.83515 19.2378 7.62817 18.1083 7.62817 16.9413C7.62817 15.7741 7.83515 14.6447 8.17399 13.5906L8.16451 13.3661L2.86947 9.25391L2.69622 9.33631C1.54801 11.6329 0.88916 14.2118 0.88916 16.9413C0.88916 19.6708 1.54801 22.2496 2.69622 24.5461L8.1928 20.292Z" fill="#FBBC05"/>
<path d="M17.8308 6.55071C21.012 6.55071 23.1579 7.92485 24.3815 9.0732L29.1628 4.40482C26.2264 1.67534 22.405 0 17.8308 0C11.2047 0 5.48221 3.80242 2.69629 9.33663L8.17405 13.5909C9.54833 9.50611 13.3507 6.55071 17.8308 6.55071Z" fill="#EB4335"/>
</g>
<defs>
<clipPath id="clip0_596_23248">
<rect width="34" height="34" fill="white" transform="translate(0.5)"/>
</clipPath>
</defs>
</svg>